<svg id="Calque_1" data-name="Calque 1" xmlns="http://www.w3.org/2000/svg" viewBox="0 0 253.91 141.73"><defs><style>.cls-1{fill:#4fbdc2;}.cls-2{fill:#1d1d1b;}</style></defs><title>logo-mmtt-2020</title><path class="cls-1" d="M212.68,36.54V40.8h-3.22v8.13a23.67,23.67,0,0,0,.09,2.88,1.17,1.17,0,0,0,.42.67,1.21,1.21,0,0,0,.8.27,5.57,5.57,0,0,0,1.89-.52l.41,4.14a8.34,8.34,0,0,1-3.73.8,5.38,5.38,0,0,1-2.3-.48,3.45,3.45,0,0,1-1.5-1.26,5.25,5.25,0,0,1-.66-2.08,29.39,29.39,0,0,1-.15-3.76V40.8h-2.17V36.54h2.17v-4l4.73-3.11v7.12Z"/><path class="cls-1" d="M224.06,36.54V29.42l4.73,3.11v4H231V40.8h-2.17v8.79a29.39,29.39,0,0,1-.15,3.76,5.25,5.25,0,0,1-.66,2.08,3.45,3.45,0,0,1-1.5,1.26,5.35,5.35,0,0,1-2.3.48,8.27,8.27,0,0,1-3.72-.8l.4-4.14a5.61,5.61,0,0,0,1.9.52,1.2,1.2,0,0,0,.79-.27,1.17,1.17,0,0,0,.42-.67,23.67,23.67,0,0,0,.09-2.88V40.8h-3.22V36.54Z"/><polygon class="cls-1" points="219.74 44.36 219.75 47.91 216.74 49.68 213.74 47.91 213.74 44.37 216.74 42.59 219.74 44.36"/><path class="cls-2" d="M74.59,52.09,74,51.8c-1.19-1.26-2.74-1.41-4.43-1.41a44.23,44.23,0,0,0-8.2,1l-8.27,1.7c-1.92.44-3.76,1-5.53,1.47a31.55,31.55,0,0,1-1,3.1L44.1,64.2c-2.44,5.68-6.35,16.61-8.34,22.37A68.91,68.91,0,0,0,33,96.46a19.25,19.25,0,0,0-.29,6.79c.29,1.63.44,3.25.74,4.87a4.74,4.74,0,0,1-3.77-1.92,10.87,10.87,0,0,1-2.51-5.9,16.17,16.17,0,0,1,.22-5c.67-4.28,3.62-13.8,5-18,1.11-3.25,2.29-6.42,3.55-9.6.74-2.06,1.62-4.06,2.51-6l2.14-5.17c-2.51.74-4.8,1.48-7.16,2.14a25.85,25.85,0,0,1-6.2,1.55,6.4,6.4,0,0,1-3.18-.37,9.53,9.53,0,0,1-3.25-2.14,4.64,4.64,0,0,1-1.18-2.8,1,1,0,0,1,.22-.59,1,1,0,0,1,.67,0,16.39,16.39,0,0,0,2,.88,3.88,3.88,0,0,0,3,0c2.8-.88,5.68-1.77,8.49-2.58,4.8-1.4,9.59-2.8,14.39-4.13,3.18-.82,6.43-1.48,9.6-2.22a65.29,65.29,0,0,1,9.15-1.18,14.45,14.45,0,0,1,3.62.3,4.39,4.39,0,0,1,3.32,3.17,13.85,13.85,0,0,1,.59,2.73C74.73,51.5,74.59,51.72,74.59,52.09ZM33.84,56.82c-.08,0-.15.07-.22.07l.07.08Zm0-.08v.08h.07v-.08Zm.29.08v-.15a.28.28,0,0,1-.22.07A.26.26,0,0,0,34.13,56.82Zm.59-.22v-.08H34.5v.08Zm.59-.22h-.07v.07h.07Zm1.55-.45a.07.07,0,0,1-.07-.07h-.07a.07.07,0,0,1,.07.07Zm3-.81v-.07h-.23v.07Zm1.1-.37a.07.07,0,0,1-.07-.07h-.07l.07.07Zm6.65-1.92h-.22l-.08.08h.22Zm1.1-.29H48.6l.07.07Zm.67-.15h-.15a.07.07,0,0,1,.08.07A.07.07,0,0,1,49.34,52.39Zm.66-.15v-.07h-.14v.07Zm.74-.15L50.67,52s-.08,0-.08.07Zm.74-.14-.15-.08h-.15C51.26,52,51.33,52,51.48,52Zm4.06-1a.07.07,0,0,1-.07-.07V51S55.47,50.91,55.54,50.91Zm1.4-.29v-.08h-.07v.08Z"/><path class="cls-2" d="M56.65,74.61h.29c-.73.88-2.21.81-3.24.88-3,.23-6.06.67-9.16.67-1.62,0-1.4-1-2.14-2l.37-.3-.59-.44c.07-.15.22-.37.44-.37,1-.3,10.26-.67,12-.67a10.17,10.17,0,0,1,1.55.23L56,73l.6,1.19-.52.14Z"/><path class="cls-2" d="M110.76,67A40.89,40.89,0,0,1,106,75.79a29.87,29.87,0,0,1-8.64,8.56c-.74.45-1.4.82-2.14,1.33a15.77,15.77,0,0,1,1.85,1,6,6,0,0,1,2.65,3.76,5.75,5.75,0,0,1-.51,5.09,18.11,18.11,0,0,1-3.62,4.36A11.54,11.54,0,0,1,88,103c-4.28,0-9.15-2.51-10.11-7.9a21.07,21.07,0,0,1,.07-7.75,61.48,61.48,0,0,1,4.5-13.58c1.92-4.43,4-8.79,6.13-13.14l.81-2.14a3,3,0,0,0-.73-.89l.14-.22A2.39,2.39,0,0,1,88,57c-.15-.74.22-1,.88-1.33,1.55-.74,2.81-.07,4,.59.81.59,1.47,1.33,2.29,1.92a2.25,2.25,0,0,1,.66,2,38,38,0,0,1-1.11,4.29C93.56,68,92.31,71.43,91,75c-1.18,3-2.36,6-3.47,9.23a36,36,0,0,0-2.14,9.52,7.31,7.31,0,0,0,.88,4.72c.22.45.59.89.89,1.41,2.88-1.33,5.09-3,6-5.76a5.59,5.59,0,0,0-1.33-6.2,3.88,3.88,0,0,0-1.1-.52A18.43,18.43,0,0,1,89,86.49c-.88-.44-.66-.73-.36-1.47a5.38,5.38,0,0,1,1.69-1.77,39.94,39.94,0,0,0,10.41-10.49,54,54,0,0,0,4.21-7.3,23.45,23.45,0,0,0,2.44-9.53,12.65,12.65,0,0,0-.52-3.32,2.52,2.52,0,0,0-2.21-1.92,22.4,22.4,0,0,0-4.43-.37,37,37,0,0,0-10.49,2.14,44.67,44.67,0,0,0-15.43,9.23,33.37,33.37,0,0,0-7.53,9.74,31.56,31.56,0,0,1-2.36,3.84c0-.14.08-.37,0-.51-.59-.37-1.33-.59-2.06-1a12.35,12.35,0,0,1,2.21-8.2A40.12,40.12,0,0,1,79.61,51.87a45.26,45.26,0,0,1,13.58-5.09c3.33-.59,6.65-1,9.82-.15A12.08,12.08,0,0,1,110,51.87a12.77,12.77,0,0,1,2.44,7.9A23.37,23.37,0,0,1,110.76,67Zm-45.25-.82h-.07v.08Zm.89-1.4-.08.07-.07.15s0-.07.15-.15Zm.51,3.62a1.19,1.19,0,0,1-.22.15l-.22.22v.07l.37-.22Zm-.07-4a.64.64,0,0,0-.22.08A.35.35,0,0,0,66.84,64.42Zm.07-.15a.58.58,0,0,0,.15-.44C67,64.05,67,64.2,66.91,64.27ZM74,59.92l-.22.15c-.74.66-1.41,1.18-2.14,1.84a23.64,23.64,0,0,0-3.92,5c-.29.37-.44.89-.73,1.26L67.8,67c1.33-1.55,2.66-3.25,4.13-4.8a15.59,15.59,0,0,1,1.85-2.07Zm-6.87,3.84.52-.37.37-.67.29-.22a1,1,0,0,0,.23-.29l-.3.29-.22.22-.44.67Zm1,.59c0,.07-.08.22-.08.29l.15-.29.3-.22Zm.37-.3a.25.25,0,0,0,.07-.15C68.54,63.9,68.54,64,68.54,64.05Zm.07-.29.44-.22v-.08A1.81,1.81,0,0,0,68.61,63.76Zm.07-1.85c.08,0,.23-.15.3-.22Zm.37,1.48c0-.08.08-.22.08-.3A.43.43,0,0,0,69.05,63.39Zm.3-.45c.07,0,.07,0,.15-.07s.07-.07.22-.15a.42.42,0,0,0-.3.15Zm.29-2.06.3-.15.22-.22Zm.3,1.62a.4.4,0,0,0,.15-.37H70Zm.29-2c.3-.3.74-.52.74-1A8.56,8.56,0,0,0,70.23,60.51Zm.74.66-.07.15a.28.28,0,0,1-.08.15l-.14.22c.07-.07.14-.15.22-.15v-.22l.15-.15.29-.29V60.8A.5.5,0,0,0,71,61.17Zm.08-1.77c.07,0,.14-.07.22-.15a.25.25,0,0,0,.15-.07l-.15.07Zm.51-.29c.08,0,.08-.08.15-.22S71.56,59,71.56,59.11Zm.3-.3c.07-.07.07-.07.15-.07s.14-.15.14-.22a.61.61,0,0,0,.3-.15c.15-.15.22-.22.22-.3a1.11,1.11,0,0,0-.22.3.53.53,0,0,0-.3.15c-.07.07-.14.14-.22.14S71.93,58.74,71.86,58.81Zm.29,4.13-.07-.07H72v.07Zm.3-3.1-.22.23.29-.23Zm.66-2.14c.15-.07.22-.22.3-.22s.07-.15.15-.22l.22-.15.07-.07-.15.07c-.07,0-.14.08-.22.15s-.07.07-.15.15Zm1.11,1.92-.15.22c.08-.07.08-.07.15-.07Zm1.92-1.4-.37.3-1.11.73c-.07,0-.14.08-.22.15l.22-.15,1.11-.66.3-.22Zm.89-.66c0,.07-.15.14-.15.14l-.3.23c-.07,0-.14.07-.22.07h.37l.22-.3ZM80.57,84.8a.5.5,0,0,0-.22.22c.07,0,.07.07.22.07Zm.15-.23h-.08v.08Zm.73-2.65c0-.15-.07-.15-.14-.15A3.38,3.38,0,0,1,81,83h.08Zm1-2.66h-.07a1.91,1.91,0,0,0-.07.66l-.67,1c.15,0,.15.08.22.08l.45-1ZM82.49,85l-.08-.08V85Zm.37-1h-.15l-.07.22h.14Zm1.33,2.88a132.36,132.36,0,0,1,5.53-15,14.81,14.81,0,0,0,1-3.39c-.89,2.06-1.92,4.13-2.73,6.2C86.7,78.15,85.52,81.55,84.26,85a25.28,25.28,0,0,0-1.33,7C83.45,90.26,83.74,88.56,84.19,86.94Zm-1.11-9.53a.88.88,0,0,0-.15.37H83Zm.15,5.47h-.15a.35.35,0,0,0,0,.37h.07Zm.22-.89c0,.07-.08.07-.08.15h.08ZM84,80.81a2,2,0,0,0-.45.74Zm-.08-5.24s-.15,0-.15.07h.15Zm.22,4.8a.07.07,0,0,1-.07-.08l-.07.3C84,80.52,84,80.52,84.11,80.37Zm.3-.81h-.08v.14A.21.21,0,0,1,84.41,79.56Zm.15-.82h.07a.22.22,0,0,0,.07-.14Zm.22-.37.29-.29C85,78,85,78,84.85,78Zm.66-1.77h.08v-.07Zm.74,7.83-.07-.08v.08Zm.37-1-.08.08h.08Zm4.8-16c0-.07,0-.07.14-.14v-.37a.58.58,0,0,0-.07.29Zm.29-1.18.67-.88c-.15,0-.22-.08-.3-.08Zm.74-1.55h.07v-.29h-.07ZM94.74,94.1h.15l.07-.59c-.07-.08-.07-.08-.14-.08Zm1.63,0c.07-.15.07-.15.07-.22l-.07-.08Zm1,1A2.6,2.6,0,0,0,98,92.4C97.77,93.36,97.62,94.17,97.33,95.13Zm3.17-19.49c-.07.08-.15.08-.15.15a.51.51,0,0,0-.29.15c-.08.07-.08.29-.15.37a.6.6,0,0,0,.15-.37l.37-.15Zm.22-.44a.29.29,0,0,0-.22.07v.15a.24.24,0,0,1,.08-.15A.22.22,0,0,0,100.72,75.2Zm.22-.22c0,.07-.14.15-.14.22h.07Zm.89-1.18L103.08,72V71.8A.29.29,0,0,0,103,72l-1.25,1.77-.52.82Zm-.3,4.8c0,.07-.07.07-.14.14h.07Zm.3-.45c-.07,0-.15.08-.22.08h-.08v.22a.25.25,0,0,1,.08-.22A.26.26,0,0,0,101.83,78.15Zm.37-2.36a1.15,1.15,0,0,0,.15-.44,1.34,1.34,0,0,1-.22.44c-.08,0-.15.07-.23.15Zm5.39-6.2c-.08.07-.37.22-.37.29l-4.8,7.46-.37.59a19.18,19.18,0,0,0,3.84-5A36.94,36.94,0,0,0,107.59,69.59Zm-5,5.31c0,.08-.15.23-.15.3s.15-.15.23-.22a1.25,1.25,0,0,1,.14-.37Zm.52-3.24a.07.07,0,0,0,.07-.08l.45-.29v-.37h-.15a1.17,1.17,0,0,0,.15.37l-.45.22v.07Zm0,2.73c.15-.15.15-.3.22-.45l.07-.07C103.31,74.09,103.16,74.24,103.16,74.39Zm.37-.59.88-1.11C103.68,72.76,103.68,73.35,103.53,73.8ZM104,70s.08,0,.08-.07H104Zm.37,2.29a.55.55,0,0,0,.08.3v-.3Zm.52-.89v.08a.3.3,0,0,1,.22-.08h-.22Zm1.48,2.37h-.08l.08.07Zm.14-.37h-.07l.07.07Zm1.19-4.14c0-.07-.08-.07-.08-.07s-.07.15-.07.3C107.66,69.44,107.74,69.37,107.74,69.29Zm.59-1.1h-.15v.14C108.18,68.26,108.18,68.19,108.33,68.19Z"/><path class="cls-2" d="M124.35,84.43a30.26,30.26,0,0,1-4,6.64A11.13,11.13,0,0,1,115.05,95a6.89,6.89,0,0,1-6.94-1.55c-2.29-2-2.59-4.65-2.07-7.67.89-4.14,3.32-7.53,6.28-10.56a3.06,3.06,0,0,1,1-.74,3.79,3.79,0,0,1,.81-.52v-.07a12.78,12.78,0,0,1,1.47-2.58A6,6,0,0,1,121,68.7a5.93,5.93,0,0,1,2,.59,6,6,0,0,1,3.47,5.84A23.11,23.11,0,0,1,124.35,84.43Zm-16.17-1.77c0,.07-.07.14-.07.22h.07Zm1.4-2.44c-.07.07-.07.07-.07.22a.39.39,0,0,0-.22.3l-.89,1.4c.59-.37.67-1,.89-1.33l.22-.37A.8.8,0,0,0,109.58,80.22Zm-.36,2.88-.08.07h.08Zm.29-.44-.07.07h.07Zm.44-1-.22.29-.22.44a.51.51,0,0,0,.22-.44C109.81,81.92,109.88,81.77,110,81.7Zm-.22,3.39a3.1,3.1,0,0,1-.07-.37,2.76,2.76,0,0,1-.08.37Zm.08-.59s-.08,0-.08.07A.07.07,0,0,0,109.81,84.5Zm.37-.44a24,24,0,0,1,3.61-6c.15-.15.22-.45.37-.6-.15,0-.22,0-.29.08-1,1.47-2.07,3-3,4.35-.44.82-.66,1.78-1,2.59Zm0-4.73H110a1.24,1.24,0,0,0-.08.45,3.17,3.17,0,0,0,.08-.37A.24.24,0,0,1,110.18,79.33Zm0,2.07c.22-.37.44-.59.59-.88C110.25,80.59,110.25,81,110.18,81.4Zm9.74,3.1a24.75,24.75,0,0,0,3.4-10.7,3.76,3.76,0,0,0-.89-2.88,5.2,5.2,0,0,0-4.73,3.84c.15.14.23.44.45.66a11.2,11.2,0,0,0-1,.67l.3,2.58c0,.22.22.44.52.59a5.59,5.59,0,0,0,1.55,1,.66.66,0,0,1-.74.74,4.78,4.78,0,0,1-2.29-.59c-.66-.52-1.25-1.11-1.92-1.62l-1.77,2.88a16,16,0,0,0-2.51,7.75,4.93,4.93,0,0,0,1.18,3.17,2.83,2.83,0,0,0,.81-.15A9.12,9.12,0,0,0,116,89.89,25.88,25.88,0,0,0,119.92,84.5Zm-9.52-5.39a.25.25,0,0,1,.07-.15c0-.07.07-.14.22-.29h-.07c-.08.07-.15.22-.22.29Zm.51,1.33a.26.26,0,0,0,.08-.22.28.28,0,0,1,.07-.22.23.23,0,0,0-.07.15v.07C111,80.29,110.91,80.37,110.91,80.44Zm.08-2.21c.07,0,.07-.08.07-.08A.07.07,0,0,0,111,78.23Zm.22-.37c.07,0,.15-.08.22-.08,0-.22.15-.37.15-.44a.25.25,0,0,0,.15-.07.25.25,0,0,0-.15.07.51.51,0,0,0-.15.3C111.36,77.78,111.28,77.78,111.21,77.86Zm.88,3.47.15.07v-.07Zm.3-.37.07.07V81Zm3.17-8.2a.35.35,0,0,0,.15-.29C115.71,72.62,115.56,72.69,115.56,72.76Zm.15-.44a.83.83,0,0,0,.22-.3Zm.52-.44c0-.08.07-.15.07-.22A.27.27,0,0,0,116.23,71.88Zm.66,1.84H117v-.14l-.08.07Zm.37-.74.22-.22Zm2.66,13.37c0,.07-.07.07-.15.22C119.85,86.49,119.92,86.42,119.92,86.35Zm.89-1.55a.35.35,0,0,0-.15.29,1.5,1.5,0,0,1-.3.44,1,1,0,0,1-.15.45l.3-.45c0-.14.15-.29.15-.44A.58.58,0,0,0,120.81,84.8Zm-.08,3.69-.29.22v.15a.23.23,0,0,1,.07-.15Zm.08-3.77a.41.41,0,0,0,.22-.29Zm3.1-2.06h-.08v.07a1,1,0,0,0-.22.29c-.81,1.55-1.7,3.18-2.51,4.8a.48.48,0,0,0-.15.37c.59-1,1.33-2,1.92-3.1a12.43,12.43,0,0,0,1-2.36h.08ZM121,84.35a1.89,1.89,0,0,0,.22-.37C121.1,84.13,121.1,84.28,121,84.35Zm.29-.51.15-.22c.07-.15.22-.23.3-.37V83c0,.07-.08.15-.08.22s-.15.3-.29.45A.35.35,0,0,1,121.32,83.84Zm.89-1.92a.24.24,0,0,0-.08.14c0-.07.08-.07.15-.14Zm2-.15a.07.07,0,0,1-.07-.07,4.51,4.51,0,0,0-.22.88Zm.3-.81h-.08l-.07.22C124.35,81.1,124.5,81,124.5,81Z"/><path class="cls-2" d="M176.77,46.92l-.59-.29c-1.18-1.25-2.73-1.4-4.43-1.4a43.39,43.39,0,0,0-8.19,1L155.29,48c-1.92.44-3.76,1-5.54,1.47a29.26,29.26,0,0,1-1,3.11L146.28,59c-2.43,5.69-6.34,16.61-8.34,22.37a68.86,68.86,0,0,0-2.73,9.89,19.25,19.25,0,0,0-.29,6.79c.29,1.63.44,3.25.73,4.88a4.75,4.75,0,0,1-3.76-1.92,10.93,10.93,0,0,1-2.51-5.91,16.17,16.17,0,0,1,.22-4.95c.67-4.28,3.62-13.8,5-18,1.11-3.25,2.29-6.42,3.54-9.59.74-2.07,1.63-4.07,2.51-6.06l2.14-5.17c-2.51.74-4.79,1.48-7.16,2.15a26.57,26.57,0,0,1-6.2,1.55,6.47,6.47,0,0,1-3.17-.37A9.58,9.58,0,0,1,123,52.54a4.63,4.63,0,0,1-1.18-2.81,1,1,0,0,1,.22-.59,1.09,1.09,0,0,1,.67,0,18.13,18.13,0,0,0,2,.89,4,4,0,0,0,3,0c2.8-.89,5.68-1.78,8.48-2.59,4.8-1.4,9.6-2.8,14.4-4.13,3.17-.81,6.42-1.48,9.6-2.22a64.91,64.91,0,0,1,9.15-1.18,14.93,14.93,0,0,1,3.62.3,4.39,4.39,0,0,1,3.32,3.17,14.6,14.6,0,0,1,.59,2.73C176.92,46.33,176.77,46.56,176.77,46.92ZM136,51.65c-.07,0-.14.07-.22.07l.08.08Zm0-.07v.07h.08v-.07Zm.3.07V51.5a.26.26,0,0,1-.22.08A.27.27,0,0,0,136.32,51.65Zm.59-.22v-.08h-.22v.08Zm.59-.22h-.07v.07h.07Zm1.55-.45a.07.07,0,0,1-.07-.07h-.08a.07.07,0,0,1,.08.07ZM142,50v-.07h-.22V50Zm1.11-.37a.07.07,0,0,1-.07-.07H143l.08.07Zm6.64-1.92h-.22l-.07.08h.22Zm1.11-.29h-.07l.07.07Zm.67-.15h-.15a.07.07,0,0,1,.07.07A.07.07,0,0,1,151.53,47.22Zm.66-.15V47H152v.07Zm.74-.15-.08-.07a.07.07,0,0,0-.07.07Zm.74-.14-.15-.08h-.15C153.45,46.78,153.52,46.78,153.67,46.78Zm4.06-1a.07.07,0,0,1-.08-.07v.15A.08.08,0,0,1,157.73,45.74Zm1.4-.29v-.07h-.07v.07Z"/><path class="cls-2" d="M197.31,54.36l-.59-.29c-1.18-1.26-2.73-1.41-4.43-1.41a44.23,44.23,0,0,0-8.19,1l-8.27,1.69c-1.92.45-3.77,1-5.54,1.48a29.06,29.06,0,0,1-1,3.1l-2.51,6.5c-2.43,5.68-6.35,16.61-8.34,22.37a67.59,67.59,0,0,0-2.73,9.89,19.26,19.26,0,0,0-.3,6.79c.3,1.62.45,3.25.74,4.87a4.72,4.72,0,0,1-3.76-1.92,10.87,10.87,0,0,1-2.51-5.9,15.85,15.85,0,0,1,.22-4.95c.66-4.28,3.62-13.8,5-18,1.11-3.25,2.29-6.42,3.54-9.6.74-2.07,1.63-4.06,2.51-6.05l2.14-5.17c-2.51.74-4.8,1.48-7.16,2.14a26.08,26.08,0,0,1-6.2,1.55,6.36,6.36,0,0,1-3.17-.37A9.43,9.43,0,0,1,143.57,60a4.57,4.57,0,0,1-1.18-2.8.94.94,0,0,1,.22-.59.93.93,0,0,1,.66,0,17.26,17.26,0,0,0,2,.88,3.85,3.85,0,0,0,3,0c2.81-.88,5.69-1.77,8.49-2.58,4.8-1.4,9.6-2.81,14.4-4.14,3.17-.81,6.42-1.47,9.6-2.21a64.91,64.91,0,0,1,9.15-1.18,14.49,14.49,0,0,1,3.62.29,4.41,4.41,0,0,1,3.32,3.18,15.45,15.45,0,0,1,.59,2.73A8.14,8.14,0,0,0,197.31,54.36Zm-40.75,4.73c-.07,0-.15.07-.22.07l.07.07Zm0-.08v.08h.08V59Zm.3.08v-.15a.29.29,0,0,1-.22.07A.25.25,0,0,0,156.86,59.09Zm.59-.23v-.07h-.22v.07Zm.59-.22H158v.08H158Zm1.55-.44a.07.07,0,0,1-.08-.07h-.07a.07.07,0,0,1,.07.07Zm2.95-.81v-.08h-.22v.08Zm1.11-.37a.07.07,0,0,1-.08-.07h-.07l.07.07Zm6.64-1.92h-.22l-.07.07h.22Zm1.11-.29h-.07l.07.07Zm.66-.15h-.14a.07.07,0,0,0,.14,0Zm.67-.15v-.07h-.15v.07Zm.74-.15-.08-.07a.07.07,0,0,0-.07.07Zm.74-.15-.15-.07h-.15C174,54.21,174.06,54.21,174.21,54.21Zm4.06-1a.07.07,0,0,1-.08-.07v.14A.07.07,0,0,1,178.27,53.18Zm1.4-.29v-.08h-.08v.08Z"/></svg>