<?xml version="1.0" encoding="UTF-8" standalone="no"?><svg xmlns="http://www.w3.org/2000/svg" xmlns:xlink="http://www.w3.org/1999/xlink" contentScriptType="application/ecmascript" contentStyleType="text/css" height="773px" preserveAspectRatio="none" style="width:907px;height:773px;" version="1.1" viewBox="0 0 907 773" width="907px" zoomAndPan="magnify"><defs><filter height="300%" id="fv8mjcddemvkr" width="300%" x="-1" y="-1"><feGaussianBlur result="blurOut" stdDeviation="2.0"/><feColorMatrix in="blurOut" result="blurOut2" type="matrix" values="0 0 0 0 0 0 0 0 0 0 0 0 0 0 0 0 0 0 .4 0"/><feOffset dx="4.0" dy="4.0" in="blurOut2" result="blurOut3"/><feBlend in="SourceGraphic" in2="blurOut3" mode="normal"/></filter><linearGradient id="gv8mjcddemvkr0" x1="50%" x2="50%" y1="0%" y2="100%"><stop offset="0%" stop-color="#F2FCFE"/><stop offset="100%" stop-color="#EEEEEE"/></linearGradient></defs><g><!--MD5=[214ea5483cd30092062be640d897c513]
cluster Conversations--><rect fill="#F0F8FF" filter="url(#fv8mjcddemvkr)" height="136" rx="4" ry="4" style="stroke: #2683B9; stroke-width: 2.0;" width="146" x="416" y="41.5"/><text fill="#2683B9" font-family="Verdana" font-size="12" font-weight="bold" lengthAdjust="spacingAndGlyphs" textLength="102" x="438" y="59.6387">Conversations</text><!--MD5=[8b4700f0355dc61961b02fa66f9ad795]
cluster Administrator--><path d="M39.3526,260.7262 C44.941,252.9721 51.9509,255.1984 55.9548,262.4763 C59.1353,254.9626 64.325,253.7714 69.6493,260.4005 C74.8637,251.1824 83.9844,251.4423 88.5434,261.0579 C93.3093,253.5469 98.8968,255.4148 103.2019,261.5526 C107.2899,252.2599 112.4601,253.4534 118.7616,259.2738 C124.7436,252.1044 132.0339,250.185 136.8816,260.4526 C140.7347,251.9567 148.3642,252.775 152.2955,260.3777 C156.9909,252.8978 164.4079,252.136 168.4391,261.0324 C172.2298,252.3769 180.1727,252.9232 185.0318,259.8983 C189.8986,253.2232 197.3202,254.1773 200.4015,261.8155 C204.2903,254.072 211.9504,252.9292 217.2448,260.2433 C228.3434,251.2219 234.1698,255.8387 239,267 C239.7661,267.1635 239.8979,267.6315 239.529,268.2684 C247.8694,272.3494 248.3935,277.1262 241.3478,283.0946 C248.9596,286.2153 250.1365,290.9872 243.8779,296.6893 C252.9895,299.3026 253.5376,307.1442 246.5709,312.4966 C254.3543,316.1686 254.9769,320.4833 248.6628,326.2929 C256.1944,331.9571 254.7289,339.789 245.3771,341.8985 C250.813,347.0035 250.7708,352.3222 243.5192,355.7218 C248.9271,360.8117 249.1724,365.8296 241.9379,369.4647 C250.3032,380.368 244.9217,389.9201 232,391 C232.8075,390.8294 233.2555,391.1044 233.2088,391.9836 C228.2959,399.0694 223.3158,398.8377 218.3361,392.0552 C214.489,401.299 207.4892,401.3189 202.1189,393.5033 C196.276,401.7796 188.0862,401.1549 183.4675,392.1798 C179.9703,400.0752 174.0684,401.6328 168.3319,394.4238 C162.5091,403.0187 155.884,401.7399 151.6383,392.9126 C147.1541,400.4839 139.5941,401.7392 134.7029,393.3444 C130.2885,399.2645 124.5722,400.2487 120.7151,392.7629 C117.5618,402.2071 109.9292,401.1977 104.5269,395.1064 C98.2715,401.8103 93.0651,401.3681 87.5417,394.2095 C82.9322,403.1772 75.3302,403.0573 71.0354,393.9225 C66.1903,399.9213 58.9256,399.328 55.9476,391.8346 C44.6991,401.2469 34.4635,397.0592 30,384 C32.0813,383.5072 32.8203,384.4475 32.3835,386.4273 C24.3484,383.8083 23.4115,377.4834 28.9285,371.6878 C22.8487,367.4689 21.5656,361.9489 28.2302,357.1192 C19.7119,352.6557 19.2697,348.149 26.9418,342.2797 C19.6256,338.7889 16.9712,330.8702 25.0158,325.6053 C18.9889,320.7514 18.4811,314.7705 26.262,311.1032 C20.8593,307.5919 20.9143,301.1156 26.8794,298.146 C18.7607,291.9712 20.7561,284.9463 29.6702,281.654 C21.625,272.4735 23.6451,261.9366 37,260 C38.0337,259.0622 39.0075,259.4332 39.3526,260.7262 " fill="url(#gv8mjcddemvkr0)" style="stroke: #F2FCFE; stroke-width: 1.5;"/><text fill="#343A40" font-family="Verdana" font-size="12" font-weight="bold" lengthAdjust="spacingAndGlyphs" textLength="97" x="86" y="281.1387">Administrator</text><!--MD5=[651a9cb98d76a5fd8afbbb3ec3aad80c]
cluster Users--><path d="M640.5268,32.9273 C644.2633,26.1421 650.0723,23.8053 655.575,31.0301 C659.5925,23.6785 667.1671,21.7388 671.905,30.2905 C676.1927,20.8422 683.915,21.2477 689.7059,28.708 C693.9926,20.2734 699.2928,21.1753 705.085,27.0949 C711.4511,20.3796 718.1118,19.4989 722.9468,28.8023 C727.3116,20.1232 733.4021,19.042 739.9489,26.5038 C743.9145,16.6959 749.0029,15.3112 756.4892,23.2162 C762.1062,15.4421 768.9108,17.315 772.1821,25.5199 C779.3573,19.0886 784.836,19.947 789.4624,28.4659 C794.1892,21.9204 799.4294,21.7021 803.4858,29.1383 C808.5848,19.8298 815.6291,20.7883 820.7135,29.1525 C825.354,20.6647 833.1431,21.9596 836.6969,30.1914 C842.4186,22.1986 849.3525,22.5611 853.9043,31.3881 C864.1769,23.7727 872.8284,26.003 876,39 C877.5628,37.9009 878.7926,38.1191 879.196,40.1746 C887.0231,44.981 889.4564,53.3384 880.0898,58.9628 C887.1782,62.7477 887.8354,70.524 880.8507,74.9775 C890.3515,78.2796 893.7008,85.7928 884.8992,93.1683 C894.2139,96.7604 895.9559,103.9907 888.1361,110.7393 C895.8449,117.0243 895.4256,126.0273 885.2669,129.5933 C892.8782,136.0808 892.1862,142.6091 882.3501,145.9935 C889.9012,152.2151 888.2166,158.848 879.6567,162.4294 C887.7007,175.4357 884.816,184.3421 869,187 C869.4993,186.8554 869.884,186.992 869.827,187.6062 C865.5693,196.4601 860.2932,197.8307 853.7562,189.772 C850.3447,196.5053 843.6838,198.3905 839.2546,190.8023 C835.4825,202.0005 827.1573,201.1267 820.0677,194.3418 C815.6704,203.6141 810.0805,204.0509 803.6133,196.3484 C799.1057,204.5247 792.9186,203.873 787.6378,197.179 C783.6152,204.6834 776.47,206.0055 771.6618,197.9876 C767.8929,205.6557 760.7161,206.9914 754.7959,200.5611 C748.3918,207.6068 742.6937,205.1366 739.0464,197.5864 C733.6718,205.861 725.355,205.0719 721.2214,196.2895 C715.0622,203.7715 709.8556,203.8026 705.2055,194.8213 C700.1129,201.2402 694.0204,203.1471 689.2218,194.5092 C682.3301,201.0957 677.9848,199.0226 674.9029,190.8204 C669.8838,198.7218 663.505,198.7156 657.64,191.8062 C644.6398,201.1589 633.6824,195.2268 632,180 C632.3702,180.1745 632.3702,180.3851 632.0778,180.6402 C624.508,176.81 624.0164,170.2764 630.4268,164.973 C620.0038,159.5658 622.6005,149.916 631.2246,145.2804 C621.623,142.2821 622.6333,134.087 628.8302,128.7941 C618.5292,123.3495 620.1147,117.0596 627.0842,110.0098 C620.6893,104.4871 620.0276,99.1626 628.3493,94.8696 C619.2191,89.055 620.1812,82.0682 628.877,76.7734 C621.6385,69.0383 620.3891,63.0392 631.4086,57.7315 C621.5414,45.3294 624.0245,37.0729 639,32 C639.8088,31.6351 640.5509,31.9208 640.5268,32.9273 " fill="url(#gv8mjcddemvkr0)" style="stroke: #F2FCFE; stroke-width: 1.5;"/><text fill="#343A40" font-family="Verdana" font-size="12" font-weight="bold" lengthAdjust="spacingAndGlyphs" textLength="41" x="733.5" y="53.1387">Users</text><!--MD5=[7392f6518dafac1260184284494040ed]
cluster Maestro--><rect fill="#F0F8FF" filter="url(#fv8mjcddemvkr)" height="264.5" rx="4" ry="4" style="stroke: #FF8C00; stroke-width: 2.0;" width="290" x="271" y="255.5"/><text fill="#2683B9" font-family="Verdana" font-size="12" font-weight="bold" lengthAdjust="spacingAndGlyphs" textLength="72" x="380" y="273.6387">Dedicated</text><text fill="#2683B9" font-family="Verdana" font-size="12" font-weight="bold" lengthAdjust="spacingAndGlyphs" textLength="59" x="386.5" y="287.6074">Maestro</text><!--MD5=[f21b1f164e99c6b37934f23ad048ad54]
cluster Data--><rect fill="#DCDCDC" filter="url(#fv8mjcddemvkr)" height="185" rx="4" ry="4" style="stroke: #2683B9; stroke-width: 2.0;" width="164" x="159" y="577"/><text fill="#2683B9" font-family="Verdana" font-size="12" font-weight="bold" lengthAdjust="spacingAndGlyphs" textLength="34" x="224" y="595.1387">Data</text><!--MD5=[fd2b71e5a2c0b2dc5a00c43e03478ebf]
cluster Gogs--><rect fill="#EEEEEE" filter="url(#fv8mjcddemvkr)" height="111" rx="4" ry="4" style="stroke: #033C73; stroke-width: 1.5;" width="116" x="183" y="627"/><path d="M239,628 L239,643.9688 L229,653.9688 L183,653.9688 " fill="none" style="stroke: #033C73; stroke-width: 1.5;"/><text fill="#033C73" font-family="Verdana" font-size="12" font-weight="bold" lengthAdjust="spacingAndGlyphs" textLength="36" x="191" y="644.1387">Gogs</text><!--MD5=[f1663fbf14c00e59c125eabd1ddaa8e2]
cluster General Purpose\nNeural Networks--><rect fill="#F0F8FF" filter="url(#fv8mjcddemvkr)" height="150" rx="4" ry="4" style="stroke: #2683B9; stroke-width: 2.0;" width="282" x="534" y="600.5"/><text fill="#2683B9" font-family="Verdana" font-size="12" font-weight="bold" lengthAdjust="spacingAndGlyphs" textLength="119" x="615.5" y="618.6387">General Purpose</text><text fill="#2683B9" font-family="Verdana" font-size="12" font-weight="bold" lengthAdjust="spacingAndGlyphs" textLength="119" x="615.5" y="632.6074">Neural Networks</text><!--MD5=[f13d783d1dae77cfa9a259b186555074]
entity Rasa--><rect fill="#EEEEEE" filter="url(#fv8mjcddemvkr)" height="77.9375" rx="4" ry="4" style="stroke: #033C73; stroke-width: 1.5;" width="114" x="432" y="83.5"/><path d="M470,84.5 L470,88.5 L463,95.5 L432,95.5 " fill="none" style="stroke: #033C73; stroke-width: 1.5;"/><text fill="#033C73" font-family="Verdana" font-size="12" lengthAdjust="spacingAndGlyphs" textLength="64" x="452" y="119.6387">Dedicated</text><text fill="#033C73" font-family="Verdana" font-size="12" lengthAdjust="spacingAndGlyphs" textLength="31" x="452" y="143.6074">Rasa</text><!--MD5=[1867c60a7d2407224cf3ecbee372708f]
entity admingui--><ellipse cx="77" cy="303.5" fill="#FFFFFF" filter="url(#fv8mjcddemvkr)" rx="8" ry="8" style="stroke: #2683B9; stroke-width: 1.5;"/><path d="M77,311.5 L77,338.5 M64,319.5 L90,319.5 M77,338.5 L64,353.5 M77,338.5 L90,353.5 " fill="none" filter="url(#fv8mjcddemvkr)" style="stroke: #2683B9; stroke-width: 1.5;"/><text fill="#2683B9" font-family="Verdana" font-size="12" lengthAdjust="spacingAndGlyphs" textLength="69" x="42.5" y="375.1387">Dashboard</text><!--MD5=[edc7c4dd739e079fc2ef89e80d9ee3d3]
entity adminbackend--><rect fill="#FFFFFF" filter="url(#fv8mjcddemvkr)" height="67.9375" rx="4" ry="4" style="stroke: #2683B9; stroke-width: 2.0;" width="84" x="147" y="304.5"/><text fill="#2683B9" font-family="Verdana" font-size="12" lengthAdjust="spacingAndGlyphs" textLength="54" x="162" y="330.6387">Backend</text><text fill="#2683B9" font-family="Verdana" font-size="12" lengthAdjust="spacingAndGlyphs" textLength="33" x="162" y="354.6074">Proxy</text><!--MD5=[d3a334505b86255156d1caf0221203f1]
entity userbackend--><rect fill="#FFFFFF" filter="url(#fv8mjcddemvkr)" height="67.9375" rx="4" ry="4" style="stroke: #2683B9; stroke-width: 2.0;" width="130" x="640" y="88.5"/><text fill="#2683B9" font-family="Verdana" font-size="12" lengthAdjust="spacingAndGlyphs" textLength="54" x="655" y="114.6387">Backend</text><text fill="#2683B9" font-family="Verdana" font-size="12" lengthAdjust="spacingAndGlyphs" textLength="100" x="655" y="138.6074">Proxy || Mercure</text><!--MD5=[5cda3d55f80d333cd817e4f6cc1d964c]
entity usergui--><ellipse cx="834" cy="75.5" fill="#FFFFFF" filter="url(#fv8mjcddemvkr)" rx="8" ry="8" style="stroke: #2683B9; stroke-width: 1.5;"/><path d="M834,83.5 L834,110.5 M821,91.5 L847,91.5 M834,110.5 L821,125.5 M834,110.5 L847,125.5 " fill="none" filter="url(#fv8mjcddemvkr)" style="stroke: #2683B9; stroke-width: 1.5;"/><text fill="#2683B9" font-family="Verdana" font-size="12" lengthAdjust="spacingAndGlyphs" textLength="27" x="805.5" y="147.1387">Web</text><text fill="#2683B9" font-family="Verdana" font-size="12" lengthAdjust="spacingAndGlyphs" textLength="57" x="805.5" y="171.1074">App/Chat</text><!--MD5=[97ab183161fd5d1db7fba7485cf76add]
entity Admin--><rect fill="#EEEEEE" filter="url(#fv8mjcddemvkr)" height="53.9688" rx="4" ry="4" style="stroke: #033C73; stroke-width: 1.5;" width="88" x="287" y="450"/><path d="M316.3333,451 L316.3333,455 L309.3333,462 L287,462 " fill="none" style="stroke: #033C73; stroke-width: 1.5;"/><text fill="#033C73" font-family="Verdana" font-size="12" lengthAdjust="spacingAndGlyphs" textLength="38" x="307" y="486.1387">Admin</text><!--MD5=[f548a745fcdbafc3f0ef48ed99eb1063]
entity FindReply--><rect fill="#EEEEEE" filter="url(#fv8mjcddemvkr)" height="53.9688" rx="4" ry="4" style="stroke: #033C73; stroke-width: 1.5;" width="109" x="434.5" y="311.5"/><path d="M470.8333,312.5 L470.8333,316.5 L463.8333,323.5 L434.5,323.5 " fill="none" style="stroke: #033C73; stroke-width: 1.5;"/><text fill="#033C73" font-family="Verdana" font-size="12" lengthAdjust="spacingAndGlyphs" textLength="59" x="454.5" y="347.6387">FindReply</text><!--MD5=[3ceae401b49d0ad0fe702da941d15e72]
entity Faiss--><rect fill="#EEEEEE" filter="url(#fv8mjcddemvkr)" height="53.9688" rx="4" ry="4" style="stroke: #033C73; stroke-width: 1.5;" width="82" x="463" y="450"/><path d="M490.3333,451 L490.3333,455 L483.3333,462 L463,462 " fill="none" style="stroke: #033C73; stroke-width: 1.5;"/><text fill="#033C73" font-family="Verdana" font-size="12" lengthAdjust="spacingAndGlyphs" textLength="32" x="483" y="486.1387">Faiss</text><!--MD5=[0961b2dd053b4978e343cf79a74f7a5f]
entity GitREpo--><path d="M199.5,679 C199.5,669 241,669 241,669 C241,669 282.5,669 282.5,679 L282.5,711.9688 C282.5,721.9688 241,721.9688 241,721.9688 C241,721.9688 199.5,721.9688 199.5,711.9688 L199.5,679 " fill="#FFFFFF" filter="url(#fv8mjcddemvkr)" style="stroke: #2683B9; stroke-width: 1.5;"/><path d="M199.5,679 C199.5,689 241,689 241,689 C241,689 282.5,689 282.5,679 " fill="none" style="stroke: #2683B9; stroke-width: 1.5;"/><text fill="#2683B9" font-family="Verdana" font-size="12" lengthAdjust="spacingAndGlyphs" textLength="53" x="214.5" y="709.1387">Git Repo</text><!--MD5=[be204df2846cf3374b6939adaaf1394d]
entity sentencematching--><rect fill="#EEEEEE" filter="url(#fv8mjcddemvkr)" height="77.9375" rx="4" ry="4" style="stroke: #033C73; stroke-width: 1.5;" width="110" x="690" y="656.5"/><path d="M726.6667,657.5 L726.6667,661.5 L719.6667,668.5 L690,668.5 " fill="none" style="stroke: #033C73; stroke-width: 1.5;"/><text fill="#033C73" font-family="Verdana" font-size="12" lengthAdjust="spacingAndGlyphs" textLength="60" x="710" y="692.6387">Sentence</text><text fill="#033C73" font-family="Verdana" font-size="12" lengthAdjust="spacingAndGlyphs" textLength="58" x="710" y="716.6074">matching</text><!--MD5=[60550a84bd3e591d28477d1e7a7b3a2e]
entity bertencoder--><rect fill="#EEEEEE" filter="url(#fv8mjcddemvkr)" height="77.9375" rx="4" ry="4" style="stroke: #033C73; stroke-width: 1.5;" width="110" x="550" y="656.5"/><path d="M586.6667,657.5 L586.6667,661.5 L579.6667,668.5 L550,668.5 " fill="none" style="stroke: #033C73; stroke-width: 1.5;"/><text fill="#033C73" font-family="Verdana" font-size="12" lengthAdjust="spacingAndGlyphs" textLength="60" x="570" y="692.6387">Sentence</text><text fill="#033C73" font-family="Verdana" font-size="12" lengthAdjust="spacingAndGlyphs" textLength="52" x="570" y="716.6074">encoder</text><!--MD5=[1f4163af6571714ccb6a772e2661db06]
link admingui to adminbackend--><path d="M116.812,338.5 C125.141,338.5 133.47,338.5 141.799,338.5 " fill="none" id="admingui-&gt;adminbackend" style="stroke: #868E96; stroke-width: 2.5;"/><polygon fill="#868E96" points="146.985,338.5,137.985,334.5,141.985,338.5,137.985,342.5,146.985,338.5" style="stroke: #868E96; stroke-width: 2.5;"/><!--MD5=[a16340f002d7c425e4491021eb956ab6]
reverse link userbackend to usergui--><path d="M775.16,122.5 C783.441,122.5 791.721,122.5 800.002,122.5 " fill="none" id="userbackend&lt;-usergui" style="stroke: #868E96; stroke-width: 2.5;"/><polygon fill="#868E96" points="770.004,122.5,779.004,126.5,775.004,122.5,779.004,118.5,770.004,122.5" style="stroke: #868E96; stroke-width: 2.5;"/><!--MD5=[5a08d90c5ceded2891b687fc4a4b5408]
link FindReply to bertencoder--><path d="M531.7671,374.036 C531.7671,374.036 555.646,400.241 563,415 C599.467,488.187 606.254,584.524 606.55,642.861 " fill="none" id="FindReply-bertencoder" style="stroke: #2FA4E7; stroke-width: 2.5;"/><polygon fill="#2FA4E7" points="606.508,656.128,610.5367,647.1408,606.5239,651.128,602.5367,647.1153,606.508,656.128" style="stroke: #2FA4E7; stroke-width: 2.5;"/><line style="stroke: #2FA4E7; stroke-width: 2.5;" x1="606.5239" x2="606.549" y1="651.128" y2="643.1275"/><polygon fill="#FFFFFF" points="523.051,365.788,524.6597,372.8174,531.7671,374.036,530.1584,367.0066,523.051,365.788" style="stroke: #2FA4E7; stroke-width: 2.5;"/><text fill="#343A40" font-family="Verdana" font-size="12" lengthAdjust="spacingAndGlyphs" textLength="71" x="603" y="481.6387">get vectors</text><path d="M592.4367,542.5715 A10,10 0 0 0 606.4114 540.4017" fill="#FFFFFF" style="stroke: #2FA4E7; stroke-width: 1.5;"/><ellipse cx="598.3391" cy="534.4993" fill="#FFFFFF" rx="6" ry="6" style="stroke: #2FA4E7; stroke-width: 1.5;"/><!--MD5=[72a8af850572b88c3883d9f17c864cc9]
link FindReply to sentencematching--><path d="M554.7257,360.3604 C554.7257,360.3604 654.303,406.751 687,450 C729.718,506.503 741.58,589.687 744.543,642.977 " fill="none" id="FindReply-sentencematching" style="stroke: #2FA4E7; stroke-width: 2.5;"/><polygon fill="#2FA4E7" points="745.128,656.177,748.7245,647.0083,744.906,651.1819,740.7324,647.3635,745.128,656.177" style="stroke: #2FA4E7; stroke-width: 2.5;"/><line style="stroke: #2FA4E7; stroke-width: 2.5;" x1="744.906" x2="744.5515" y1="651.1819" y2="643.19"/><polygon fill="#FFFFFF" points="543.512,356.088,547.6947,361.9621,554.7257,360.3604,550.543,354.4863,543.512,356.088" style="stroke: #2FA4E7; stroke-width: 2.5;"/><text fill="#343A40" font-family="Verdana" font-size="12" lengthAdjust="spacingAndGlyphs" textLength="64" x="732" y="481.6387">get match</text><path d="M685.6238,459.9049 A10,10 0 0 0 696.9049 451.3762" fill="#FFFFFF" style="stroke: #2FA4E7; stroke-width: 1.5;"/><ellipse cx="687" cy="450" fill="#FFFFFF" rx="6" ry="6" style="stroke: #2FA4E7; stroke-width: 1.5;"/><!--MD5=[89073de54cf137347fd8893c67f64b3f]
link Admin to bertencoder--><path d="M373.4663,511.5549 C373.4663,511.5549 494.708,607.353 546.281,648.103 " fill="none" id="Admin-bertencoder" style="stroke: #2FA4E7; stroke-width: 2.5;"/><polygon fill="#2FA4E7" points="556.607,656.262,552.0255,647.5436,552.684,653.162,547.0656,653.8205,556.607,656.262" style="stroke: #2FA4E7; stroke-width: 2.5;"/><line style="stroke: #2FA4E7; stroke-width: 2.5;" x1="552.684" x2="546.407" y1="653.162" y2="648.203"/><polygon fill="#FFFFFF" points="364.051,504.115,366.2787,510.9734,373.4663,511.5549,371.2386,504.6965,364.051,504.115" style="stroke: #2FA4E7; stroke-width: 2.5;"/><text fill="#343A40" font-family="Verdana" font-size="12" lengthAdjust="spacingAndGlyphs" textLength="71" x="442" y="553.1387">get vectors</text><path d="M441.6981,574.4797 A10,10 0 0 0 450.4658 563.3834" fill="#FFFFFF" style="stroke: #2FA4E7; stroke-width: 1.5;"/><ellipse cx="440.5338" cy="564.5477" fill="#FFFFFF" rx="6" ry="6" style="stroke: #2FA4E7; stroke-width: 1.5;"/><!--MD5=[78cb61f1ca21974a4d1dacfa07ef6f82]
link adminbackend to Admin--><path d="M221.0057,382.2998 C221.0057,382.2998 255.668,423.141 275,440 C275.735,440.641 276.482,441.279 277.24,441.913 " fill="none" id="adminbackend-Admin" style="stroke: #2FA4E7; stroke-width: 2.5;"/><polygon fill="#2FA4E7" points="287.571,449.913,282.9044,441.2399,283.6178,446.8516,278.0061,447.5649,287.571,449.913" style="stroke: #2FA4E7; stroke-width: 2.5;"/><line style="stroke: #2FA4E7; stroke-width: 2.5;" x1="283.6178" x2="277.293" y1="446.8516" y2="441.9535"/><polygon fill="#FFFFFF" points="213.54,372.905,214.1413,380.091,221.0057,382.2998,220.4045,375.1138,213.54,372.905" style="stroke: #2FA4E7; stroke-width: 2.5;"/><text fill="#343A40" font-family="Verdana" font-size="12" font-weight="bold" lengthAdjust="spacingAndGlyphs" textLength="36" x="285" y="432.1387">Drive</text><path d="M240.2261,414.8139 A10,10 0 0 0 250.7395 405.3551" fill="#FFFFFF" style="stroke: #2FA4E7; stroke-width: 1.5;"/><ellipse cx="240.7534" cy="404.8278" fill="#FFFFFF" rx="6" ry="6" style="stroke: #2FA4E7; stroke-width: 1.5;"/><!--MD5=[3a7d4f1ddd2ef89f420af4d78499efd6]
link FindReply to Admin--><path d="M458.536,365.819 C431.784,388.93 392.908,422.516 365.119,446.524 " fill="none" id="FindReply-&gt;Admin" style="stroke: #868E96; stroke-width: 2.5;"/><polygon fill="#868E96" points="361.102,449.994,370.5277,447.1383,364.886,446.7257,365.2985,441.0839,361.102,449.994" style="stroke: #868E96; stroke-width: 2.5;"/><text fill="#343A40" font-family="Verdana" font-size="12" lengthAdjust="spacingAndGlyphs" textLength="56" x="407" y="432.1387">Get Infos</text><!--MD5=[01def536c7e66b642be4210d05c6d36c]
link FindReply to Faiss--><path d="M491.892,365.819 C494.362,388.29 497.919,420.663 500.539,444.507 " fill="none" id="FindReply-&gt;Faiss" style="stroke: #868E96; stroke-width: 2.5;"/><polygon fill="#868E96" points="501.117,449.762,504.1108,440.3792,500.5713,444.7919,496.1586,441.2524,501.117,449.762" style="stroke: #868E96; stroke-width: 2.5;"/><text fill="#343A40" font-family="Verdana" font-size="12" lengthAdjust="spacingAndGlyphs" textLength="44" x="506" y="432.1387">Search</text><!--MD5=[16beb0b1f75d9cd856f515b1661a15ad]
link Admin to Faiss--><path d="M375.103,477 C400.443,477 432.232,477 457.9,477 " fill="none" id="Admin-&gt;Faiss" style="stroke: #868E96; stroke-width: 2.5;"/><polygon fill="#868E96" points="462.948,477,453.948,473,457.948,477,453.948,481,462.948,477" style="stroke: #868E96; stroke-width: 2.5;"/><text fill="#343A40" font-family="Verdana" font-size="12" lengthAdjust="spacingAndGlyphs" textLength="46" x="396" y="466.1387">Update</text><!--MD5=[8f084162688aca05f7b5ac562e4d950c]
link Rasa to FindReply--><path d="M489,173.759 C489,173.759 489,263.323 489,298.011 " fill="none" id="Rasa-FindReply" style="stroke: #2FA4E7; stroke-width: 2.5;"/><polygon fill="#2FA4E7" points="489,311.361,493,302.361,489,306.361,485,302.361,489,311.361" style="stroke: #2FA4E7; stroke-width: 2.5;"/><line style="stroke: #2FA4E7; stroke-width: 2.5;" x1="489" x2="489" y1="306.361" y2="298.361"/><polygon fill="#FFFFFF" points="489,161.759,485,167.759,489,173.759,493,167.759,489,161.759" style="stroke: #2FA4E7; stroke-width: 2.5;"/><text fill="#343A40" font-family="Verdana" font-size="12" font-weight="bold" lengthAdjust="spacingAndGlyphs" textLength="25" x="499" y="228.1387">Ask</text><path d="M481.9289,229.9481 A10,10 0 0 0 496.0711 229.9481" fill="#FFFFFF" style="stroke: #2FA4E7; stroke-width: 1.5;"/><ellipse cx="489" cy="222.877" fill="#FFFFFF" rx="6" ry="6" style="stroke: #2FA4E7; stroke-width: 1.5;"/><!--MD5=[2934b5894c28afd0e9f04e6d256f24d4]
link adminbackend to GitREpo--><path d="M193.845,372.579 C203.871,441.023 226.766,597.328 236.494,663.737 " fill="none" id="adminbackend-&gt;GitREpo" style="stroke: #2FA4E7; stroke-width: 2.5;"/><polygon fill="#2FA4E7" points="237.227,668.742,239.8811,659.2575,236.5027,663.7947,231.9654,660.4164,237.227,668.742" style="stroke: #2FA4E7; stroke-width: 2.5;"/><text fill="#343A40" font-family="Verdana" font-size="12" font-weight="bold" lengthAdjust="spacingAndGlyphs" textLength="35" x="226" y="481.6387">Push</text><!--MD5=[069bf8f10e7b3c48cf98d58389182dec]
link Admin to GitREpo--><path d="M320.144,504.115 C303.397,544.4 271.346,621.5 253.601,664.187 " fill="none" id="Admin-&gt;GitREpo" style="stroke: #2FA4E7; stroke-width: 2.5;"/><polygon fill="#2FA4E7" points="251.615,668.965,258.7648,662.1915,253.5353,664.3485,251.3784,659.119,251.615,668.965" style="stroke: #2FA4E7; stroke-width: 2.5;"/><text fill="#343A40" font-family="Verdana" font-size="12" font-weight="bold" lengthAdjust="spacingAndGlyphs" textLength="26" x="317" y="553.1387">Pull</text><!--MD5=[d3344f5e9552e2ee8af75298871ccca4]
reverse link Rasa to userbackend--><path d="M551.149,122.5 C578.865,122.5 611.528,122.5 639.612,122.5 " fill="none" id="Rasa&lt;-userbackend" style="stroke: #2FA4E7; stroke-width: 2.5;"/><polygon fill="#2FA4E7" points="546.034,122.5,555.034,126.5,551.034,122.5,555.034,118.5,546.034,122.5" style="stroke: #2FA4E7; stroke-width: 2.5;"/><text fill="#343A40" font-family="Verdana" font-size="12" font-weight="bold" lengthAdjust="spacingAndGlyphs" textLength="48" x="571" y="111.6387">Talk to</text><!--MD5=[a5f3e520039e08f77d667c4c31571c1a]
@startuml




skinparam backgroundColor White








skinparam defaultFontName       "Verdana"
skinparam defaultFontSize       12
skinparam dpi                   100
skinparam shadowing             True
skinparam roundcorner           8
skinparam ParticipantPadding    40
skinparam BoxPadding            40
skinparam Padding               5
skinparam ArrowColor            #868E96
skinparam stereotype {
    CBackgroundColor #EDF0F2
    CBorderColor #BABDBF
    ABackgroundColor #8FB961
    ABorderColor $SUCCESS_DARK
    IBackgroundColor #D2494E
    IBorderColor $DANGER_DARK
    EBackgroundColor #E47833
    EBorderColor $WARNING_DARK
    NBackgroundColor #35638F
    NBorderColor $INFO_DARK
}
skinparam title {
	FontColor	                 #2FA4E7
	BorderColor	                 #BABDBF
	FontSize	    	         20
	BorderRoundCorner            8
	BorderThickness 	         1
	BackgroundColor              White
}

skinparam legend {
	BackgroundColor White
	BorderColor #BABDBF
	FontColor #343A40
}


skinparam activity {
		FontColor #2683B9
	BorderColor #2683B9
	BackgroundColor White
	BarColor #73A839
	StartColor #033C73
	EndColor #033C73
	DiamondBackgroundColor White
  	DiamondBorderColor #BABDBF
	DiamondFontColor #BABDBF
}


skinparam participant {
		FontColor #2683B9
	BorderColor #2683B9
	BackgroundColor White
	ParticipantBorderThickness 2
}


skinparam actor {
		FontColor #2683B9
	BorderColor #2683B9
	BackgroundColor White
}


skinparam arrow {
	Thickness 2.5
	Color #2FA4E7
	FontColor #343A40
}


skinparam sequence {
	BorderColor #2FA4E7
	TitleFontColor #2FA4E7
	BackgroundColor White
	StartColor #2FA4E7
	EndColor #2FA4E7
	BoxBackgroundColor White
	BoxBorderColor #868E96
	BoxFontColor #343A40
	LifeLineBorderColor #BABDBF
	LifeLineBorderThickness 2
	LifeLineBackgroundColor White
	GroupBorderColor #868E96
	GroupFontColor #343A40
	GroupHeaderFontColor #033C73
	DividerBackgroundColor White
    DividerBorderColor #868E96
    DividerBorderThickness 2
    DividerFontColor #343A40
	ReferenceBackgroundColor White
	ReferenceBorderColor #868E96
	ReferenceFontColor #343A40
	ReferenceHeaderFontColor #033C73
}


skinparam partition {
	BorderColor #2FA4E7
	FontColor #2FA4E7
	BackgroundColor White
}


skinparam collections {
		FontColor #2683B9
	BorderColor #2683B9
	BackgroundColor White
}


skinparam control {
		FontColor #2683B9
	BorderColor #2683B9
	BackgroundColor White
}


skinparam entity {
		FontColor #2683B9
	BorderColor #2683B9
	BackgroundColor White
}


skinparam boundary {
		FontColor #2683B9
	BorderColor #2683B9
	BackgroundColor White
}


skinparam agent {
	BackgroundColor White
	BorderColor #999999
	FontColor #333333
}


skinparam note {
	BorderThickness 1
	BackgroundColor White
	BorderColor #033C73
	FontColor #033C73
}


skinparam artifact {
	BackgroundColor White
	BorderColor #868E96
	FontColor #868E96
}


skinparam component {
		FontColor #2683B9
	BorderColor #2683B9
	BackgroundColor White
	
}


skinparam interface {
	BackgroundColor  White
	BorderColor  #C71C22
	FontColor #343A40
}


skinparam storage {
	BackgroundColor White
  	BorderColor #DD5600
	FontColor #DD5600
}


skinparam node {
	BackgroundColor White
	BorderColor #343A40
	FontColor #343A40
}


skinparam cloud {
	BackgroundColor #F2FCFE-#eeeeee
	BorderColor #F2FCFE
	FontColor #343A40
}


skinparam database {
		FontColor #2683B9
	BorderColor #2683B9
	BackgroundColor White
}


skinparam class {
		FontColor #2683B9
	BorderColor #2683B9
	BackgroundColor White
	HeaderBackgroundColor #2FA4E7-#2683B9
	StereotypeFontColor #343A40
	BorderThickness 1
	AttributeFontColor #343A40
	AttributeFontSize 11
}


skinparam object {
		FontColor #2683B9
	BorderColor #2683B9
	BackgroundColor White
	StereotypeFontColor #343A40
	BorderThickness 1
	AttributeFontColor #BABDBF
	AttributeFontSize 11
}


skinparam usecase {
		FontColor #2683B9
	BorderColor #2683B9
	BackgroundColor White
	BorderThickness 2
	StereotypeFontColor #2FA4E7
}


skinparam rectangle {
		FontColor #2683B9
	BorderColor #2683B9
	BackgroundColor White
	BorderThickness 2
	StereotypeFontColor #2FA4E7
}


skinparam package {
	BackgroundColor #F2FCFE-#eeeeee
  	BorderColor #033C73
	FontColor #033C73
	BorderThickness 2
}


skinparam folder {
	BackgroundColor White
  	BorderColor #DD5600
	FontColor #DD5600
	BorderThickness 2
}


skinparam frame {
		FontColor #2683B9
	BorderColor #2683B9
	BackgroundColor White
	BorderThickness 2
	StereotypeFontColor #2FA4E7
}



skinparam state {
		FontColor #2683B9
	BorderColor #2683B9
	BackgroundColor White
	StartColor #033C73
	EndColor #033C73
	AttributeFontColor #BABDBF
	AttributeFontSize 11
}


skinparam queue {
		FontColor #2683B9
	BorderColor #2683B9
	BackgroundColor White
}


skinparam card {
	BackgroundColor White
	BorderColor #033C73
	FontColor #033C73
}


skinparam file {
	BackgroundColor White
	BorderColor #868E96
	FontColor #868E96
}


skinparam stack {
		FontColor #2683B9
	BorderColor #2683B9
	BackgroundColor White
}



hide stereotype

!pragma horizontalLineBetweenDifferentPackageAllowed

skinparam file<<NOTE>> {
	BorderThickness 0.5
    BackgroundColor LightYellow
	BorderColor LightSteelBlue
	FontColor SteelBlue
    FontSize 10
    ArrowColor LightSteelBlue
}
skinparam arrow<<NOTE>> {
    Color LightSteelBlue
}





skinparam node<<MULTITHREADED>>{
    FontColor #E47833
	BorderColor #E47833
	BackgroundColor White
	BorderThickness 2
	StereotypeFontColor #2FA4E7
}


skinparam package<<CONTAINER>>{
    	BackgroundColor #eeeeee
  	BorderColor #033C73
	FontColor #033C73
	BorderThickness 2
}
skinparam frame<<CONTAINER>>{
    	BackgroundColor #eeeeee
  	BorderColor #033C73
	FontColor #033C73
	BorderThickness 2
}


skinparam rectangle<<boundary>> {
    BackgroundColor #eeeeee
    Shadowing false
    StereotypeFontSize 0
    FontColor #444444
    BorderColor #444444
    BorderStyle dashed
    BoxPadding 0
}

skinparam file<<docker_params>> {
    Shadowing True
    FontSize 10
}












skinparam nodesep 30
skinparam ranksep 20

skinparam Entity<<FINDREP>>{
    FontColor black
	BorderColor #6F42C1
	BackgroundColor #Yellow/Blue
}
skinparam Entity<<FAISS>>{
    FontColor black
	BorderColor #6F42C1
	BackgroundColor #Blue/White
}
skinparam arrow<<TEST>> {
	Thickness 1
	Color #73A839
	FontColor #343A40
}
skinparam arrow<<INTRA>> {
	Color #868E96
}









skinparam backgroundColor White








skinparam defaultFontName       "Verdana"
skinparam defaultFontSize       12
skinparam dpi                   100
skinparam shadowing             True
skinparam roundcorner           8
skinparam ParticipantPadding    40
skinparam BoxPadding            40
skinparam Padding               5
skinparam ArrowColor            #868E96
skinparam stereotype {
    CBackgroundColor #EDF0F2
    CBorderColor #BABDBF
    ABackgroundColor #8FB961
    ABorderColor $SUCCESS_DARK
    IBackgroundColor #D2494E
    IBorderColor $DANGER_DARK
    EBackgroundColor #E47833
    EBorderColor $WARNING_DARK
    NBackgroundColor #35638F
    NBorderColor $INFO_DARK
}
skinparam title {
	FontColor	                 #2FA4E7
	BorderColor	                 #BABDBF
	FontSize	    	         20
	BorderRoundCorner            8
	BorderThickness 	         1
	BackgroundColor              White
}

skinparam legend {
	BackgroundColor White
	BorderColor #BABDBF
	FontColor #343A40
}


skinparam activity {
		FontColor #2683B9
	BorderColor #2683B9
	BackgroundColor White
	BarColor #73A839
	StartColor #033C73
	EndColor #033C73
	DiamondBackgroundColor White
  	DiamondBorderColor #BABDBF
	DiamondFontColor #BABDBF
}


skinparam participant {
		FontColor #2683B9
	BorderColor #2683B9
	BackgroundColor White
	ParticipantBorderThickness 2
}


skinparam actor {
		FontColor #2683B9
	BorderColor #2683B9
	BackgroundColor White
}


skinparam arrow {
	Thickness 2.5
	Color #2FA4E7
	FontColor #343A40
}


skinparam sequence {
	BorderColor #2FA4E7
	TitleFontColor #2FA4E7
	BackgroundColor White
	StartColor #2FA4E7
	EndColor #2FA4E7
	BoxBackgroundColor White
	BoxBorderColor #868E96
	BoxFontColor #343A40
	LifeLineBorderColor #BABDBF
	LifeLineBorderThickness 2
	LifeLineBackgroundColor White
	GroupBorderColor #868E96
	GroupFontColor #343A40
	GroupHeaderFontColor #033C73
	DividerBackgroundColor White
    DividerBorderColor #868E96
    DividerBorderThickness 2
    DividerFontColor #343A40
	ReferenceBackgroundColor White
	ReferenceBorderColor #868E96
	ReferenceFontColor #343A40
	ReferenceHeaderFontColor #033C73
}


skinparam partition {
	BorderColor #2FA4E7
	FontColor #2FA4E7
	BackgroundColor White
}


skinparam collections {
		FontColor #2683B9
	BorderColor #2683B9
	BackgroundColor White
}


skinparam control {
		FontColor #2683B9
	BorderColor #2683B9
	BackgroundColor White
}


skinparam entity {
		FontColor #2683B9
	BorderColor #2683B9
	BackgroundColor White
}


skinparam boundary {
		FontColor #2683B9
	BorderColor #2683B9
	BackgroundColor White
}


skinparam agent {
	BackgroundColor White
	BorderColor #999999
	FontColor #333333
}


skinparam note {
	BorderThickness 1
	BackgroundColor White
	BorderColor #033C73
	FontColor #033C73
}


skinparam artifact {
	BackgroundColor White
	BorderColor #868E96
	FontColor #868E96
}


skinparam component {
		FontColor #2683B9
	BorderColor #2683B9
	BackgroundColor White
	
}


skinparam interface {
	BackgroundColor  White
	BorderColor  #C71C22
	FontColor #343A40
}


skinparam storage {
	BackgroundColor White
  	BorderColor #DD5600
	FontColor #DD5600
}


skinparam node {
	BackgroundColor White
	BorderColor #343A40
	FontColor #343A40
}


skinparam cloud {
	BackgroundColor #F2FCFE-#eeeeee
	BorderColor #F2FCFE
	FontColor #343A40
}


skinparam database {
		FontColor #2683B9
	BorderColor #2683B9
	BackgroundColor White
}


skinparam class {
		FontColor #2683B9
	BorderColor #2683B9
	BackgroundColor White
	HeaderBackgroundColor #2FA4E7-#2683B9
	StereotypeFontColor #343A40
	BorderThickness 1
	AttributeFontColor #343A40
	AttributeFontSize 11
}


skinparam object {
		FontColor #2683B9
	BorderColor #2683B9
	BackgroundColor White
	StereotypeFontColor #343A40
	BorderThickness 1
	AttributeFontColor #BABDBF
	AttributeFontSize 11
}


skinparam usecase {
		FontColor #2683B9
	BorderColor #2683B9
	BackgroundColor White
	BorderThickness 2
	StereotypeFontColor #2FA4E7
}


skinparam rectangle {
		FontColor #2683B9
	BorderColor #2683B9
	BackgroundColor White
	BorderThickness 2
	StereotypeFontColor #2FA4E7
}


skinparam package {
	BackgroundColor #F2FCFE-#eeeeee
  	BorderColor #033C73
	FontColor #033C73
	BorderThickness 2
}


skinparam folder {
	BackgroundColor White
  	BorderColor #DD5600
	FontColor #DD5600
	BorderThickness 2
}


skinparam frame {
		FontColor #2683B9
	BorderColor #2683B9
	BackgroundColor White
	BorderThickness 2
	StereotypeFontColor #2FA4E7
}



skinparam state {
		FontColor #2683B9
	BorderColor #2683B9
	BackgroundColor White
	StartColor #033C73
	EndColor #033C73
	AttributeFontColor #BABDBF
	AttributeFontSize 11
}


skinparam queue {
		FontColor #2683B9
	BorderColor #2683B9
	BackgroundColor White
}


skinparam card {
	BackgroundColor White
	BorderColor #033C73
	FontColor #033C73
}


skinparam file {
	BackgroundColor White
	BorderColor #868E96
	FontColor #868E96
}


skinparam stack {
		FontColor #2683B9
	BorderColor #2683B9
	BackgroundColor White
}



hide stereotype

!pragma horizontalLineBetweenDifferentPackageAllowed

skinparam file<<NOTE>> {
	BorderThickness 0.5
    BackgroundColor LightYellow
	BorderColor LightSteelBlue
	FontColor SteelBlue
    FontSize 10
    ArrowColor LightSteelBlue
}
skinparam arrow<<NOTE>> {
    Color LightSteelBlue
}





skinparam node<<MULTITHREADED>>{
    FontColor #E47833
	BorderColor #E47833
	BackgroundColor White
	BorderThickness 2
	StereotypeFontColor #2FA4E7
}


skinparam package<<CONTAINER>>{
    	BackgroundColor #eeeeee
  	BorderColor #033C73
	FontColor #033C73
	BorderThickness 2
}
skinparam frame<<CONTAINER>>{
    	BackgroundColor #eeeeee
  	BorderColor #033C73
	FontColor #033C73
	BorderThickness 2
}


skinparam rectangle<<boundary>> {
    BackgroundColor #eeeeee
    Shadowing false
    StereotypeFontSize 0
    FontColor #444444
    BorderColor #444444
    BorderStyle dashed
    BoxPadding 0
}

skinparam file<<docker_params>> {
    Shadowing True
    FontSize 10
}












skinparam nodesep 20
skinparam ranksep 10

scale 1








skinparam backgroundColor White








skinparam defaultFontName       "Verdana"
skinparam defaultFontSize       12
skinparam dpi                   100
skinparam shadowing             True
skinparam roundcorner           8
skinparam ParticipantPadding    40
skinparam BoxPadding            40
skinparam Padding               5
skinparam ArrowColor            #868E96
skinparam stereotype {
    CBackgroundColor #EDF0F2
    CBorderColor #BABDBF
    ABackgroundColor #8FB961
    ABorderColor $SUCCESS_DARK
    IBackgroundColor #D2494E
    IBorderColor $DANGER_DARK
    EBackgroundColor #E47833
    EBorderColor $WARNING_DARK
    NBackgroundColor #35638F
    NBorderColor $INFO_DARK
}
skinparam title {
	FontColor	                 #2FA4E7
	BorderColor	                 #BABDBF
	FontSize	    	         20
	BorderRoundCorner            8
	BorderThickness 	         1
	BackgroundColor              White
}

skinparam legend {
	BackgroundColor White
	BorderColor #BABDBF
	FontColor #343A40
}


skinparam activity {
		FontColor #2683B9
	BorderColor #2683B9
	BackgroundColor White
	BarColor #73A839
	StartColor #033C73
	EndColor #033C73
	DiamondBackgroundColor White
  	DiamondBorderColor #BABDBF
	DiamondFontColor #BABDBF
}


skinparam participant {
		FontColor #2683B9
	BorderColor #2683B9
	BackgroundColor White
	ParticipantBorderThickness 2
}


skinparam actor {
		FontColor #2683B9
	BorderColor #2683B9
	BackgroundColor White
}


skinparam arrow {
	Thickness 2.5
	Color #2FA4E7
	FontColor #343A40
}


skinparam sequence {
	BorderColor #2FA4E7
	TitleFontColor #2FA4E7
	BackgroundColor White
	StartColor #2FA4E7
	EndColor #2FA4E7
	BoxBackgroundColor White
	BoxBorderColor #868E96
	BoxFontColor #343A40
	LifeLineBorderColor #BABDBF
	LifeLineBorderThickness 2
	LifeLineBackgroundColor White
	GroupBorderColor #868E96
	GroupFontColor #343A40
	GroupHeaderFontColor #033C73
	DividerBackgroundColor White
    DividerBorderColor #868E96
    DividerBorderThickness 2
    DividerFontColor #343A40
	ReferenceBackgroundColor White
	ReferenceBorderColor #868E96
	ReferenceFontColor #343A40
	ReferenceHeaderFontColor #033C73
}


skinparam partition {
	BorderColor #2FA4E7
	FontColor #2FA4E7
	BackgroundColor White
}


skinparam collections {
		FontColor #2683B9
	BorderColor #2683B9
	BackgroundColor White
}


skinparam control {
		FontColor #2683B9
	BorderColor #2683B9
	BackgroundColor White
}


skinparam entity {
		FontColor #2683B9
	BorderColor #2683B9
	BackgroundColor White
}


skinparam boundary {
		FontColor #2683B9
	BorderColor #2683B9
	BackgroundColor White
}


skinparam agent {
	BackgroundColor White
	BorderColor #999999
	FontColor #333333
}


skinparam note {
	BorderThickness 1
	BackgroundColor White
	BorderColor #033C73
	FontColor #033C73
}


skinparam artifact {
	BackgroundColor White
	BorderColor #868E96
	FontColor #868E96
}


skinparam component {
		FontColor #2683B9
	BorderColor #2683B9
	BackgroundColor White
	
}


skinparam interface {
	BackgroundColor  White
	BorderColor  #C71C22
	FontColor #343A40
}


skinparam storage {
	BackgroundColor White
  	BorderColor #DD5600
	FontColor #DD5600
}


skinparam node {
	BackgroundColor White
	BorderColor #343A40
	FontColor #343A40
}


skinparam cloud {
	BackgroundColor #F2FCFE-#eeeeee
	BorderColor #F2FCFE
	FontColor #343A40
}


skinparam database {
		FontColor #2683B9
	BorderColor #2683B9
	BackgroundColor White
}


skinparam class {
		FontColor #2683B9
	BorderColor #2683B9
	BackgroundColor White
	HeaderBackgroundColor #2FA4E7-#2683B9
	StereotypeFontColor #343A40
	BorderThickness 1
	AttributeFontColor #343A40
	AttributeFontSize 11
}


skinparam object {
		FontColor #2683B9
	BorderColor #2683B9
	BackgroundColor White
	StereotypeFontColor #343A40
	BorderThickness 1
	AttributeFontColor #BABDBF
	AttributeFontSize 11
}


skinparam usecase {
		FontColor #2683B9
	BorderColor #2683B9
	BackgroundColor White
	BorderThickness 2
	StereotypeFontColor #2FA4E7
}


skinparam rectangle {
		FontColor #2683B9
	BorderColor #2683B9
	BackgroundColor White
	BorderThickness 2
	StereotypeFontColor #2FA4E7
}


skinparam package {
	BackgroundColor #F2FCFE-#eeeeee
  	BorderColor #033C73
	FontColor #033C73
	BorderThickness 2
}


skinparam folder {
	BackgroundColor White
  	BorderColor #DD5600
	FontColor #DD5600
	BorderThickness 2
}


skinparam frame {
		FontColor #2683B9
	BorderColor #2683B9
	BackgroundColor White
	BorderThickness 2
	StereotypeFontColor #2FA4E7
}



skinparam state {
		FontColor #2683B9
	BorderColor #2683B9
	BackgroundColor White
	StartColor #033C73
	EndColor #033C73
	AttributeFontColor #BABDBF
	AttributeFontSize 11
}


skinparam queue {
		FontColor #2683B9
	BorderColor #2683B9
	BackgroundColor White
}


skinparam card {
	BackgroundColor White
	BorderColor #033C73
	FontColor #033C73
}


skinparam file {
	BackgroundColor White
	BorderColor #868E96
	FontColor #868E96
}


skinparam stack {
		FontColor #2683B9
	BorderColor #2683B9
	BackgroundColor White
}



hide stereotype

!pragma horizontalLineBetweenDifferentPackageAllowed

skinparam file<<NOTE>> {
	BorderThickness 0.5
    BackgroundColor LightYellow
	BorderColor LightSteelBlue
	FontColor SteelBlue
    FontSize 10
    ArrowColor LightSteelBlue
}
skinparam arrow<<NOTE>> {
    Color LightSteelBlue
}





skinparam node<<MULTITHREADED>>{
    FontColor #E47833
	BorderColor #E47833
	BackgroundColor White
	BorderThickness 2
	StereotypeFontColor #2FA4E7
}


skinparam package<<CONTAINER>>{
    	BackgroundColor #eeeeee
  	BorderColor #033C73
	FontColor #033C73
	BorderThickness 2
}
skinparam frame<<CONTAINER>>{
    	BackgroundColor #eeeeee
  	BorderColor #033C73
	FontColor #033C73
	BorderThickness 2
}


skinparam rectangle<<boundary>> {
    BackgroundColor #eeeeee
    Shadowing false
    StereotypeFontSize 0
    FontColor #444444
    BorderColor #444444
    BorderStyle dashed
    BoxPadding 0
}

skinparam file<<docker_params>> {
    Shadowing True
    FontSize 10
}












skinparam nodesep 30
skinparam ranksep 20
skinparam componentStyle uml2

skinparam Entity<<ADMIN>>{
    FontColor black
	BorderColor #6F42C1
	BackgroundColor #Red/Yellow
}
skinparam Entity<<FAISS>>{
    FontColor black
	BorderColor #6F42C1
	BackgroundColor #Blue/White
}
skinparam arrow<<TEST>> {
	Thickness 1
	Color #73A839
	FontColor #343A40
}

skinparam arrow<<INTRA>> {
	Color #868E96
}



skinparam rectangle<<UNCHANGED>>{
    BackgroundColor GainsBoro
}

skinparam rectangle<<INTEREST>>{
    BorderColor DarkOrange
    BackgroundColor AliceBlue
}

skinparam rectangle<<OUTOFSCOPE>>{
    BackgroundColor AliceBlue
}




rectangle Conversations <<OUTOFSCOPE>>{
   frame "Dedicated\nRasa" as Rasa <<CONTAINER>> {
   }
}

cloud Administrator {
    actor "Dashboard" as admingui
    rectangle "Backend\nProxy" as adminbackend
    admingui -> adminbackend<<INTRA>>
}
cloud Users {
    rectangle "Backend\nProxy || Mercure" as userbackend
    actor "Web\nApp/Chat" as usergui
    usergui -l-> userbackend<<INTRA>>
}



rectangle "Dedicated\nMaestro" as Maestro <<INTEREST>>{
    frame Admin <<CONTAINER>> {
    }

    frame FindReply <<CONTAINER>> {
    }

    frame Faiss <<CONTAINER>> {
    }
}



rectangle Data <<UNCHANGED>>{
    frame Gogs <<CONTAINER>>  {
        database "Git Repo" as GitREpo
    }
}

rectangle "General Purpose\nNeural Networks" <<OUTOFSCOPE>>{
    frame "Sentence\nmatching" as sentencematching <<CONTAINER>>
    frame "Sentence\nencoder" as bertencoder <<CONTAINER>>
    
}

FindReply o-0)-> bertencoder: get vectors
FindReply o-0)-> sentencematching: get match
Admin o-0)-> bertencoder: get vectors

adminbackend o-0)-> Admin: <b> Drive</b>

FindReply - -> Admin <<INTRA>>:  Get Infos
FindReply - -> Faiss <<INTRA>>: Search
Admin -> Faiss <<INTRA>>: Update

Rasa o-0)-> FindReply: <b> Ask</b>
adminbackend - -> GitREpo: <b> Push</b>
Admin - -> GitREpo:<b> Pull</b>

userbackend -l-> Rasa: <b> Talk to</b>
@enduml

PlantUML version 1.2020.08(Sun Apr 26 14:08:22 UTC 2020)
(GPL source distribution)
Java Runtime: OpenJDK Runtime Environment
JVM: OpenJDK 64-Bit Server VM
Java Version: 1.8.0_212-8u212-b01-1~deb9u1-b01
Operating System: Linux
Default Encoding: UTF-8
Language: en
Country: null
--></g></svg>